<svg width="512" height="512" viewBox="0 0 512 512" fill="none" xmlns="http://www.w3.org/2000/svg">
  <rect width="512" height="512" rx="112" fill="#007BB8"/>
  <path d="M133 288C133 196.663 203.443 128 295.354 128C332.97 128 371.236 140.228 397.754 164.683L345.909 221.623C332.97 209.395 318.084 203.603 300.608 203.603C258 203.603 226.208 235.395 226.208 282.549C226.208 329.704 258.643 361.496 303.2 361.496C321.647 361.496 337.505 356.351 352.39 345.095V304.256H290.208V236.695H431.216V383.803C397.754 416.891 353.038 432 298.554 432C203.443 432 133 363.337 133 288Z" fill="white"/>
  <path d="M192 170L256 93L320 170H192Z" fill="#8CE3FF" fill-opacity="0.9"/>
</svg>
