<svg width="192" height="192" viewBox="0 0 192 192" fill="none" xmlns="http://www.w3.org/2000/svg">
  <rect width="192" height="192" rx="42" fill="#007BB8"/>
  <path d="M50 108C50 73.758 76.416 48 110.882 48C124.988 48 139.338 52.585 149.282 61.755L129.84 83.107C124.988 78.522 119.407 76.351 112.854 76.351C96.871 76.351 84.949 88.272 84.949 105.952C84.949 123.633 97.112 135.554 113.825 135.554C120.742 135.554 126.687 133.624 132.268 129.402V114.09H108.952V88.755H161.833V143.92C149.282 156.324 132.511 162 112.125 162C76.416 162 50 136.242 50 108Z" fill="white"/>
  <path d="M72 64L96 35L120 64H72Z" fill="#8CE3FF" fill-opacity="0.9"/>
</svg>
